HIERARCHY
ROOT ui
{
	 OFFSET 0 0 0
	 CHANNELS 3 XPosition YPosition Z Position
	 EndSite
	 {
	 OFFSET 0 -1 0
	 }
}
ROOT li
{
	 OFFSET 0 0 0
	 CHANNELS 3 XPosition YPosition Z Position
	 EndSite
	 {
	 OFFSET 0 -1 0
	 }
}
ROOT ul
{
	 OFFSET 0 0 0
	 CHANNELS 3 XPosition YPosition Z Position
	 EndSite
	 {
	 OFFSET 0 -1 0
	 }
}
ROOT ll
{
	 OFFSET 0 0 0
	 CHANNELS 3 XPosition YPosition Z Position
	 EndSite
	 {
	 OFFSET 0 -1 0
	 }
}
ROOT tt
{
	 OFFSET 0 0 0
	 CHANNELS 3 XPosition YPosition Z Position
	 EndSite
	 {
	 OFFSET 0 -1 0
	 }
}
ROOT tb
{
	 OFFSET 0 0 0
	 CHANNELS 3 XPosition YPosition Z Position
	 EndSite
	 {
	 OFFSET 0 -1 0
	 }
}
ROOT td
{
	 OFFSET 0 0 0
	 CHANNELS 3 XPosition YPosition Z Position
	 EndSite
	 {
	 OFFSET 0 -1 0
	 }
}
ROOT v
{
	 OFFSET 0 0 0
	 CHANNELS 3 XPosition YPosition Z Position
	 EndSite
	 {
	 OFFSET 0 -1 0
	 }
}
ROOT bn
{
	 OFFSET 0 0 0
	 CHANNELS 3 XPosition YPosition Z Position
	 EndSite
	 {
	 OFFSET 0 -1 0
	 }
}
MOTION
Frames: 10
Frame Time: 0.002
0.0016486560106277466	-0.0018299720287322998	0		0.5030652160644531	-2.469310791015625	0		-1.0051096801757813	-0.03461130142211914	0		-0.6929144897460937	-2.29163232421875	0		1.075577880859375	-0.6783807983398438	0		2.927942138671875	-0.1778297119140625	0		4.573818359375	0.021409767150878906	0		5.55579833984375	0.06664167022705078	0		-0.008536358833312989	5.954330078125	0		
-0.007830835819244385	0.006941325187683105	0		0.503799560546875	-2.469640869140625	0		-1.004747314453125	-0.035171867370605465	0		-0.666103759765625	-2.28661279296875	0		1.07603857421875	-0.6786234130859375	0		2.921291748046875	-0.17966337585449219	0		4.56804736328125	0.014810439109802245	0		5.546146484375	0.06726305389404297	0		-0.14246250915527345	5.9343125	0		
-0.0074736661911010745	0.006524056911468506	0		0.5045482177734375	-2.469977294921875	0		-0.9925632934570312	-0.0459586296081543	0		-0.6816305541992187	-2.30084716796875	0		1.0913416748046876	-0.688134765625	0		2.943906005859375	-0.16701107788085937	0		4.572509765625	0.021044387817382812	0		5.5506357421875	0.07565129089355468	0		-0.17714366149902344	5.92847998046875	0		
-0.007123899936676025	0.0061057028770446775	0		0.5093672180175781	-2.466384033203125	0		-0.9999569702148438	-0.032396968841552735	0		-0.6788561401367188	-2.29841015625	0		1.091803466796875	-0.6883759765625	0		2.929233154296875	-0.1696885986328125	0		4.56799853515625	0.029451465606689452	0		5.56097265625	0.07595289611816407	0		-0.010281144142150879	5.95308544921875	0		
-0.006788454055786133	0.005692691802978516	0		0.5101058349609375	-2.466712890625	0		-0.9937034912109375	-0.038075912475585935	0		-0.685968994140625	-2.28879443359375	0		1.0922520751953124	-0.6886097412109375	0		2.95769775390625	-0.16411277770996094	0		4.57318994140625	0.021698389053344726	0		5.561296875	0.07644785308837891	0		0.0032745480537414553	5.96342578125	0		
-0.006472458839416504	0.0052899169921875	0		0.5347364501953125	-2.472445556640625	0		-1.0033615112304688	-0.03746736145019531	0		-0.6893633422851563	-2.29423828125	0		1.086578857421875	-0.6947279052734375	0		2.92994189453125	-0.16954489135742187	0		4.5735029296875	0.022045337677001953	0		5.5467939453125	0.08821444702148437	0		-0.012555499076843262	5.95328564453125	0		
0.0036647648811340334	-0.004269093990325928	0		0.5074540710449219	-2.4712666015625	0		-1.0030615844726563	-0.03801861572265625	0		-0.7015911865234375	-2.288516357421875	0		1.0839176025390624	-0.6988868408203125	0		2.921299072265625	-0.16730172729492188	0		4.58479150390625	0.022213613510131836	0		5.56188232421875	0.07747425079345703	0		-0.013231045722961425	5.9528955078125	0		
-0.005912168979644776	0.004528745174407959	0		0.5101515502929688	-2.4695908203125	0		-0.9868915405273437	-0.044821292877197265	0		-0.7009566040039062	-2.289	0		1.09019482421875	-0.705185546875	0		2.93643896484375	-0.1764586181640625	0		4.5740576171875	0.022763261795043944	0		5.5521396484375	0.07816337585449219	0		-0.16421710205078124	5.93607177734375	0		
0.004174598217010498	-0.004991150856018066	0		0.48789715576171877	-2.462477294921875	0		-0.9825775146484375	-0.041394721984863284	0		-0.6755487060546875	-2.300880126953125	0		1.1046102294921876	-0.70160400390625	0		2.95190625	-0.16460777282714845	0		4.57839501953125	0.029054834365844728	0		5.55648486328125	0.08560699462890625	0		-0.11565501403808594	5.94986767578125	0		
0.0025195260047912596	0.0027115979194641112	0		0.5413857421875	-2.468617431640625	0		-0.988276611328125	-0.03677264404296875	0		-0.69474072265625	-2.28597998046875	0		1.0969769287109374	-0.6986356811523438	0		2.93106103515625	-0.1691448974609375	0		4.5855	0.0232945556640625	0		5.56256494140625	0.07901001739501953	0		-0.14764814758300782	5.9310400390625	0		
